<svg width="38" height="38" viewBox="0 0 38 38" fill="none" xmlns="http://www.w3.org/2000/svg">
<rect width="38" height="38" fill="black"/>
<path d="M27.5761 13.3252C26.0073 12.1092 24.1248 11.5012 22.1376 11.3999L21.8238 11.7039C23.6018 12.1092 25.1707 12.9199 26.6348 14.0346C24.8569 13.1226 22.8697 12.5146 20.7779 12.3119C20.1504 12.2106 19.6275 12.2106 19 12.2106C18.3725 12.2106 17.8495 12.2106 17.222 12.3119C15.1302 12.5146 13.1431 13.1226 11.3651 14.0346C12.8293 12.9199 14.3982 12.1092 16.1761 11.7039L15.8623 11.3999C13.8752 11.5012 11.9926 12.1092 10.4238 13.3252C8.64585 16.5679 7.70456 20.2159 7.59998 23.9652C9.16876 25.5866 11.3651 26.5999 13.6661 26.5999C13.6661 26.5999 14.3982 25.7892 14.9211 25.0799C13.5615 24.7759 12.3064 24.0665 11.4697 22.9519C12.2018 23.3572 12.9339 23.7626 13.6661 24.0665C14.6073 24.4719 15.5486 24.6746 16.4899 24.8772C17.3266 24.9785 18.1633 25.0799 19 25.0799C19.8367 25.0799 20.6734 24.9785 21.51 24.8772C22.4513 24.6746 23.3926 24.4719 24.3339 24.0665C25.0661 23.7626 25.7982 23.3572 26.5302 22.9519C25.6936 24.0665 24.4385 24.7759 23.0789 25.0799C23.6018 25.7892 24.3339 26.5999 24.3339 26.5999C26.6348 26.5999 28.8312 25.5866 30.4 23.9652C30.2954 20.2159 29.3541 16.5679 27.5761 13.3252ZM15.5486 22.1412C14.5027 22.1412 13.5615 21.2292 13.5615 20.1146C13.5615 18.9999 14.5027 18.0879 15.5486 18.0879C16.5945 18.0879 17.5358 18.9999 17.5358 20.1146C17.5358 21.2292 16.5945 22.1412 15.5486 22.1412ZM22.4513 22.1412C21.4054 22.1412 20.4642 21.2292 20.4642 20.1146C20.4642 18.9999 21.4054 18.0879 22.4513 18.0879C23.4972 18.0879 24.4385 18.9999 24.4385 20.1146C24.4385 21.2292 23.4972 22.1412 22.4513 22.1412Z" fill="white"/>
</svg>
