<svg width="38" height="38" viewBox="0 0 38 38" fill="none" xmlns="http://www.w3.org/2000/svg">
<rect width="38" height="38" fill="black"/>
<path d="M19.9334 25.6501C12.7927 25.6501 8.71976 20.6576 8.55005 12.3501H12.1269C12.2444 18.4476 14.8814 21.0304 16.9701 21.5629V12.3501H20.3381V17.6089C22.4007 17.3825 24.5677 14.9861 25.2988 12.3501H28.6668C28.3913 13.7172 27.8422 15.0117 27.0538 16.1525C26.2654 17.2933 25.2546 18.2559 24.0847 18.9801C25.3906 19.6419 26.544 20.5785 27.4688 21.7283C28.3937 22.878 29.0689 24.2147 29.4501 25.6501H25.7426C25.4005 24.4033 24.7052 23.2873 23.7438 22.4418C22.7824 21.5963 21.5977 21.059 20.3381 20.8972V25.6501H19.9334Z" fill="white"/>
</svg>
