<svg width="38" height="38" viewBox="0 0 38 38" fill="none" xmlns="http://www.w3.org/2000/svg">
<rect width="38" height="38" fill="black"/>
<path d="M24.9412 9.06867C21.3203 8.37718 17.5601 8.37718 13.9391 9.06867C12.3376 9.41441 10.3182 11.3506 9.97003 12.8719C9.34332 15.8453 9.34332 18.8878 9.97003 21.8612C10.3878 23.3825 12.4072 25.3187 13.9391 25.6644C14.0088 25.6644 14.0784 25.7336 14.0784 25.8027V30.1591C14.0784 30.3666 14.3569 30.5049 14.4962 30.2974L16.5852 28.1538C16.5852 28.1538 18.2564 26.4251 18.5349 26.1485C18.5349 26.1485 18.6046 26.0793 18.6742 26.0793C20.7632 26.1485 22.9219 25.941 25.0109 25.5953C26.6124 25.2495 28.6318 23.3134 28.98 21.7921C29.6067 18.8187 29.6067 15.7761 28.98 12.8027C28.5622 11.3506 26.5428 9.41441 24.9412 9.06867ZM25.0109 22.0687C24.6627 22.7602 24.2449 23.3134 23.5486 23.6591C23.3397 23.7283 23.1308 23.7974 22.9219 23.8666C22.6433 23.7974 22.4344 23.7283 22.2255 23.6591C19.9973 22.7602 17.9082 21.5155 16.237 19.7176C15.3318 18.6804 14.5658 17.5049 13.9391 16.2602C13.6606 15.6378 13.3821 15.0846 13.1732 14.4623C12.9643 13.9091 13.3124 13.3559 13.6606 12.941C14.0088 12.5261 14.4266 12.2495 14.914 12.0421C15.2622 11.8346 15.6103 11.9729 15.8889 12.2495C16.4459 12.941 17.003 13.6325 17.4208 14.3931C17.6993 14.8772 17.6297 15.4304 17.1423 15.7761C17.003 15.8453 16.9334 15.9144 16.7941 16.0527C16.7245 16.1219 16.5852 16.191 16.5156 16.3293C16.3763 16.5368 16.3763 16.7442 16.4459 16.9517C17.003 18.5421 18.0475 19.7868 19.6491 20.4783C19.9276 20.6166 20.1365 20.6857 20.4847 20.6857C20.9721 20.6166 21.181 20.0634 21.5292 19.7868C21.8774 19.5102 22.2952 19.5102 22.713 19.7176C23.0611 19.9251 23.4093 20.2017 23.8271 20.4783C24.1753 20.7549 24.5234 20.9623 24.8716 21.2389C25.0805 21.3772 25.1501 21.7229 25.0109 22.0687ZM22.0863 16.8825C21.947 16.8825 22.0166 16.8825 22.0863 16.8825C21.8077 16.8825 21.7381 16.7442 21.6685 16.5368C21.6685 16.3985 21.6685 16.191 21.5988 16.0527C21.5292 15.7761 21.3899 15.4995 21.1114 15.2921C20.9721 15.2229 20.8329 15.1538 20.6936 15.0846C20.4847 15.0155 20.3454 15.0155 20.1365 15.0155C19.9276 14.9463 19.858 14.808 19.858 14.6006C19.858 14.4623 20.0669 14.324 20.2062 14.324C21.3203 14.3931 22.1559 15.0155 22.2952 16.3293C22.2952 16.3985 22.2952 16.5368 22.2952 16.6059C22.2952 16.7442 22.2255 16.8825 22.0863 16.8825ZM21.3899 13.84C21.0418 13.7017 20.6936 13.5634 20.2758 13.4942C20.1365 13.4942 19.9276 13.4251 19.7884 13.4251C19.5795 13.4251 19.4402 13.2868 19.5098 13.0793C19.5098 12.8719 19.6491 12.7336 19.858 12.8027C20.5543 12.8719 21.181 13.0102 21.8077 13.2868C23.0611 13.9091 23.7575 14.9463 23.9664 16.3293C23.9664 16.3985 23.9664 16.4676 23.9664 16.5368C23.9664 16.6751 23.9664 16.8134 23.9664 17.0208C23.9664 17.09 23.9664 17.1591 23.9664 17.2283C23.8967 17.5049 23.4093 17.574 23.3397 17.2283C23.3397 17.1591 23.27 17.0208 23.27 16.9517C23.27 16.3293 23.1308 15.707 22.8522 15.1538C22.4344 14.5314 21.947 14.1165 21.3899 13.84ZM25.1501 17.9889C24.9412 17.9889 24.802 17.7815 24.802 17.574C24.802 17.1591 24.7323 16.7442 24.6627 16.3293C24.3842 14.1165 22.5737 12.3187 20.4151 11.9729C20.0669 11.9038 19.7187 11.9038 19.4402 11.8346C19.2313 11.8346 18.9527 11.8346 18.8831 11.558C18.8135 11.3506 19.0224 11.1431 19.2313 11.1431C19.3009 11.1431 19.3706 11.1431 19.3706 11.1431C22.2255 11.2123 19.5098 11.1431 19.3706 11.1431C22.2952 11.2123 24.7323 13.1485 25.2198 16.0527C25.2894 16.5368 25.359 17.0208 25.359 17.574C25.4983 17.7815 25.359 17.9889 25.1501 17.9889Z" fill="white"/>
</svg>
