<svg width="38" height="38" viewBox="0 0 38 38" fill="none" xmlns="http://www.w3.org/2000/svg">
<rect width="38" height="38" fill="black"/>
<path d="M19 11.2169C21.5181 11.2169 21.8614 11.2169 22.8916 11.2169C23.8072 11.2169 24.2651 11.4458 24.6084 11.5602C25.0663 11.7892 25.4096 11.9036 25.753 12.247C26.0964 12.5904 26.3253 12.9337 26.4398 13.3916C26.5542 13.7349 26.6687 14.1928 26.7831 15.1084C26.7831 16.1386 26.7831 16.3675 26.7831 19C26.7831 21.6325 26.7831 21.8614 26.7831 22.8916C26.7831 23.8072 26.5542 24.2651 26.4398 24.6084C26.2108 25.0663 26.0964 25.4096 25.753 25.753C25.4096 26.0964 25.0663 26.3253 24.6084 26.4398C24.2651 26.5542 23.8072 26.6687 22.8916 26.7831C21.8614 26.7831 21.6325 26.7831 19 26.7831C16.3675 26.7831 16.1386 26.7831 15.1084 26.7831C14.1928 26.7831 13.7349 26.5542 13.3916 26.4398C12.9337 26.2108 12.5904 26.0964 12.247 25.753C11.9036 25.4096 11.6747 25.0663 11.5602 24.6084C11.4458 24.2651 11.3313 23.8072 11.2169 22.8916C11.2169 21.8614 11.2169 21.6325 11.2169 19C11.2169 16.3675 11.2169 16.1386 11.2169 15.1084C11.2169 14.1928 11.4458 13.7349 11.5602 13.3916C11.7892 12.9337 11.9036 12.5904 12.247 12.247C12.5904 11.9036 12.9337 11.6747 13.3916 11.5602C13.7349 11.4458 14.1928 11.3313 15.1084 11.2169C16.1386 11.2169 16.4819 11.2169 19 11.2169ZM19 9.5C16.3675 9.5 16.1386 9.5 15.1084 9.5C14.0783 9.5 13.3916 9.72892 12.8193 9.95783C12.247 10.1867 11.6747 10.5301 11.1024 11.1024C10.5301 11.6747 10.3012 12.1325 9.95783 12.8193C9.72892 13.3916 9.61446 14.0783 9.5 15.1084C9.5 16.1386 9.5 16.4819 9.5 19C9.5 21.6325 9.5 21.8614 9.5 22.8916C9.5 23.9217 9.72892 24.6084 9.95783 25.1807C10.1867 25.753 10.5301 26.3253 11.1024 26.8976C11.6747 27.4699 12.1325 27.6988 12.8193 28.0422C13.3916 28.2711 14.0783 28.3855 15.1084 28.5C16.1386 28.5 16.4819 28.5 19 28.5C21.5181 28.5 21.8614 28.5 22.8916 28.5C23.9217 28.5 24.6084 28.2711 25.1807 28.0422C25.753 27.8133 26.3253 27.4699 26.8976 26.8976C27.4699 26.3253 27.6988 25.8675 28.0422 25.1807C28.2711 24.6084 28.3855 23.9217 28.5 22.8916C28.5 21.8614 28.5 21.5181 28.5 19C28.5 16.4819 28.5 16.1386 28.5 15.1084C28.5 14.0783 28.2711 13.3916 28.0422 12.8193C27.8133 12.247 27.4699 11.6747 26.8976 11.1024C26.3253 10.5301 25.8675 10.3012 25.1807 9.95783C24.6084 9.72892 23.9217 9.61446 22.8916 9.5C21.8614 9.5 21.6325 9.5 19 9.5Z" fill="white"/>
<path d="M19 14.0783C16.253 14.0783 14.0783 16.253 14.0783 19C14.0783 21.747 16.253 23.9217 19 23.9217C21.747 23.9217 23.9217 21.747 23.9217 19C23.9217 16.253 21.747 14.0783 19 14.0783ZM19 22.2048C17.2831 22.2048 15.7952 20.8313 15.7952 19C15.7952 17.2831 17.1687 15.7952 19 15.7952C20.7169 15.7952 22.2048 17.1687 22.2048 19C22.2048 20.7169 20.7169 22.2048 19 22.2048Z" fill="white"/>
<path d="M24.0361 15.1084C24.6683 15.1084 25.1807 14.596 25.1807 13.9639C25.1807 13.3317 24.6683 12.8193 24.0361 12.8193C23.404 12.8193 22.8916 13.3317 22.8916 13.9639C22.8916 14.596 23.404 15.1084 24.0361 15.1084Z" fill="white"/>
</svg>
