<?xml version="1.0" standalone="no"?>
<!DOCTYPE svg PUBLIC "-//W3C//DTD SVG 20010904//EN"
 "http://www.w3.org/TR/2001/REC-SVG-20010904/DTD/svg10.dtd">
<svg version="1.0" xmlns="http://www.w3.org/2000/svg"
 width="320.000000pt" height="320.000000pt" viewBox="0 0 320.000000 320.000000"
 preserveAspectRatio="xMidYMid meet">
<metadata>
Created by potrace 1.16, written by Peter Selinger 2001-2019
</metadata>
<g transform="translate(0.000000,320.000000) scale(0.100000,-0.100000)"
fill="#000000" stroke="none">
<path d="M1830 2390 c-81 -10 -144 -26 -194 -52 -38 -20 -38 -20 -86 1 -154
66 -488 69 -796 6 -125 -26 -148 -36 -154 -70 -4 -27 -9 -30 -43 -31 -21 -1
-41 -4 -45 -8 -3 -4 -6 -316 -5 -693 2 -547 5 -688 15 -695 7 -4 204 -8 438
-8 l425 0 10 -22 c10 -22 14 -23 193 -26 l182 -2 12 25 11 25 436 0 c240 0
442 4 449 8 10 7 12 149 12 697 0 379 -2 690 -4 693 -3 2 -23 6 -45 9 -34 5
-41 9 -41 28 0 33 -15 40 -125 63 -258 54 -479 71 -645 52z m-415 -35 c42 -8
101 -26 131 -39 54 -25 55 -25 87 -6 17 10 57 26 87 35 75 23 326 31 472 16
133 -14 357 -57 374 -72 7 -6 14 -23 16 -37 3 -24 8 -27 46 -30 l42 -3 0 -674
0 -675 -452 -2 -453 -3 -3 -27 -3 -28 -169 0 -169 0 -3 28 -3 27 -442 3 -443
2 0 675 0 675 29 0 c44 0 61 10 61 35 0 12 6 28 14 34 16 14 226 56 342 69
130 15 354 14 439 -3z"/>
<path d="M1830 2301 c-79 -12 -140 -30 -177 -53 l-33 -20 0 -599 c0 -553 3
-625 25 -590 3 5 36 20 73 33 62 21 82 23 267 22 174 -1 218 -4 340 -28 77
-15 150 -29 163 -33 l22 -5 -2 603 -3 603 -45 13 c-135 39 -511 71 -630 54z
m395 -36 c61 -8 145 -22 188 -31 l77 -17 0 -578 c0 -319 -2 -579 -5 -579 -3 0
-65 11 -138 24 -178 33 -373 50 -466 41 -70 -7 -182 -31 -223 -50 -17 -7 -18
24 -18 564 l0 571 33 20 c94 59 278 70 552 35z"/>
<path d="M995 2289 c-97 -12 -255 -40 -282 -50 l-23 -9 0 -600 c0 -330 2 -600
4 -600 3 0 33 7 68 15 294 67 571 77 716 24 31 -11 65 -23 75 -26 16 -5 17 27
17 583 0 324 -4 594 -8 600 -13 20 -72 45 -140 60 -74 15 -311 17 -427 3z
m410 -23 c33 -7 77 -20 98 -29 l37 -16 0 -575 0 -574 -50 19 c-28 11 -93 24
-145 31 -118 15 -323 0 -500 -37 -66 -13 -123 -25 -127 -25 -5 0 -8 261 -8
579 l0 580 53 10 c100 20 173 32 242 40 111 13 333 12 400 -3z"/>
<path d="M1110 1034 c-123 -15 -253 -36 -273 -44 -14 -5 105 -9 317 -9 288 -1
337 1 327 13 -6 8 -33 19 -59 26 -49 12 -251 21 -312 14z"/>
<path d="M1818 1030 c-52 -8 -118 -34 -118 -45 0 -3 152 -5 338 -4 192 0 328
4 316 9 -78 32 -425 58 -536 40z"/>
</g>
</svg>
