<svg width="22" height="22" viewBox="0 0 22 22" fill="none" xmlns="http://www.w3.org/2000/svg">
<path fill-rule="evenodd" clip-rule="evenodd" d="M0.354269 10.2523C0.159007 10.4476 0.159007 10.7641 0.354269 10.9594L8.81629 19.4214C8.82331 19.4294 8.83063 19.4372 8.83825 19.4448L10.2525 20.859C10.3632 20.9698 10.513 21.0177 10.6576 21.0028C10.7683 20.9917 10.876 20.9437 10.9609 20.8589L12.3751 19.4447C12.382 19.4378 12.3886 19.4308 12.395 19.4236L20.8591 10.9595C21.0543 10.7643 21.0543 10.4477 20.8591 10.2524L19.4449 8.83822C19.2496 8.64295 18.933 8.64295 18.7377 8.83822L10.6067 16.9692L2.47559 8.83808C2.28033 8.64282 1.96374 8.64282 1.76848 8.83808L0.354269 10.2523Z" fill="#fff"/>
</svg>
